<?xml version="1.0" encoding="UTF-8"?>
<svg width="150px" height="40px" viewBox="0 0 150 40" version="1.1" xmlns="http://www.w3.org/2000/svg" xmlns:xlink="http://www.w3.org/1999/xlink">
    <title>Group 4</title>
    <g id="Call-Controls-Symbols" stroke="none" stroke-width="1" fill="none" fill-rule="evenodd">
        <g id="Group-4">
            <rect id="Rectangle" x="0" y="0" width="150" height="40"></rect>
            <g id="logo-8" transform="translate(0.000000, 4.000000)" fill="#394149" fill-rule="nonzero">
                <path d="M23.2975406,14.1149848 C22.4221028,14.9957715 21.9846181,16.2208121 22.1040822,17.4568966 L22.0835446,17.436359 C22.2063341,18.8909697 21.68164,20.3257383 20.6494169,21.3579615 C19.6171937,22.3901847 18.182425,22.9148787 16.7278144,22.7920892 L16.7483519,22.8126268 C14.9871516,22.6487006 13.3122533,23.6066938 12.5606428,25.2078746 C11.8090323,26.8090554 12.1421002,28.7096082 13.3934047,29.9597824 C14.6447092,31.2099565 16.5455622,31.5413067 18.1460632,30.7882494 C19.7465641,30.0351922 20.7030431,28.3594288 20.5375254,26.5983773 L20.5592039,26.6189148 C20.4364144,25.1643042 20.9611084,23.7295355 21.9933316,22.6973123 C23.0255548,21.6650892 24.4603234,21.1403951 25.9149341,21.2631846 L25.8932556,21.2426471 C27.8288701,21.4167204 29.629974,20.23649 30.2430582,18.392301 C30.8561425,16.548112 30.1201458,14.5244452 28.4655703,13.5049917 C26.8109949,12.4855383 24.6725086,12.7381154 23.3009635,14.1149848 L23.2975406,14.1149848 Z" id="Path"></path>
                <path d="M14.8805781,20.122211 L14.8588996,20.1016734 C16.0957677,20.2263013 17.3232279,19.7889251 18.2025859,18.9102305 C19.0819438,18.0315358 19.5202462,16.804406 19.3965517,15.5674442 L19.4182302,15.5879817 C19.2954407,14.1333711 19.8201348,12.6986024 20.852358,11.6663793 C21.8845811,10.6341561 23.3193498,10.109462 24.7739604,10.2322515 L24.7522819,10.211714 C26.5136331,10.3771226 28.1895474,9.42017767 28.9423038,7.81921677 C29.6950602,6.21825587 29.3629668,4.31716508 28.1120236,3.06622184 C26.8610804,1.81527859 24.9599896,1.48318524 23.3590287,2.23594165 C21.7580678,2.98869806 20.8011228,4.6646123 20.9665314,6.42596349 L20.9459939,6.40428499 C21.0691917,7.85899806 20.5446298,9.2940118 19.5123102,10.3263315 C18.4799905,11.3586511 17.0449768,11.883213 15.5902637,11.7600152 L15.6108012,11.7816937 C14.3739332,11.6570658 13.1464729,12.094442 12.2671149,12.9731367 C11.387757,13.8518313 10.9494546,15.0789612 11.0731491,16.3159229 L11.0526116,16.2953854 C11.1749932,17.7498936 10.650167,19.1844175 9.6180402,20.2165443 C8.58591341,21.2486711 7.15138956,21.7734972 5.69688134,21.6511156 L5.71741886,21.6716531 C3.95606768,21.5062445 2.28015343,22.4631895 1.52739702,24.0641504 C0.774640614,25.6651113 1.10673397,27.5662021 2.35767721,28.8171453 C3.60862046,30.0680885 5.50971125,30.4001819 7.11067214,29.6474255 C8.71163304,28.8946691 9.66857798,27.2187548 9.50316937,25.4574037 L9.52484787,25.4779412 C9.40205838,24.0233305 9.92675245,22.5885619 10.9589756,21.5563387 C11.9911988,20.5241155 13.4259675,19.9994215 14.8805781,20.122211 L14.8805781,20.122211 Z" id="Path"></path>
                <path d="M7.23377282,17.8322769 C8.10934866,16.9516352 8.54650154,15.7263522 8.42609026,14.4903651 L8.44776876,14.5109026 C8.32488517,13.0558611 8.84987433,11.6206717 9.88262664,10.5883592 C10.9153789,9.55604675 12.3507918,9.031669 13.8057809,9.15517241 L13.7841024,9.13463489 C15.5448394,9.29958566 17.2199474,8.34272577 17.9722451,6.74227221 C18.7245428,5.14181864 18.3924702,3.24147784 17.1419896,1.99099723 C15.891509,0.740516622 13.9911682,0.408443983 12.3907146,1.16074172 C10.790261,1.91303946 9.83340116,3.58814739 9.99835193,5.34888438 L9.9778144,5.32834686 C10.1006039,6.78295749 9.57590982,8.21772615 8.54368665,9.24994933 C7.51146348,10.2821725 6.07669481,10.8068666 4.62208418,10.6840771 L4.6426217,10.7046146 C2.70707748,10.5310374 0.906351332,11.7115725 0.293631319,13.5557619 C-0.319088694,15.3999513 0.417143144,17.4233743 2.071728,18.4425943 C3.72631285,19.4618143 5.86463403,19.2091086 7.23605477,17.8322769 L7.23377282,17.8322769 Z" id="Path"></path>
                <polygon id="Path" points="42.577713 6.45220588 45.9664047 6.45220588 45.9664047 22.9426978 42.577713 22.9426978"></polygon>
                <path d="M47.8855223,17.2960193 C47.8758225,14.8724729 49.3282664,12.6821661 51.5645533,11.7479862 C53.8008401,10.8138064 56.3797417,11.3200709 58.0968944,13.0303509 C59.814047,14.740631 60.3306496,17.3174816 59.4054454,19.5574968 C58.4802412,21.7975121 56.2957767,23.2587281 53.872211,23.2587475 C52.2831198,23.2768638 50.7534868,22.6552475 49.6275056,21.5337728 C48.5015245,20.4122982 47.8737788,18.8851703 47.8855223,17.2960193 Z M56.4702079,17.2960193 C56.430767,15.8704309 55.2499819,14.7428828 53.8240909,14.7692054 C52.3982,14.7955281 51.2598354,15.9658889 51.2730376,17.3919616 C51.2862397,18.8180344 52.4460771,19.9671191 53.872211,19.9670385 C54.5797299,19.9859317 55.2629094,19.7080741 55.7563959,19.2007171 C56.2498824,18.6933601 56.5087008,18.0027429 56.4702079,17.2960193 Z" id="Shape"></path>
                <path d="M73.3646045,11.6481998 L73.3646045,22.3733519 C73.3646045,26.1682302 70.4049189,27.7724391 67.4007353,27.7724391 C65.2443354,27.9338196 63.1784336,26.8770923 62.047287,25.0341024 L64.9385142,23.3625761 C65.4160864,24.3275733 66.4425511,24.8946985 67.5136917,24.7853702 C68.1908548,24.879201 68.8739664,24.6602338 69.3703916,24.1902166 C69.8668168,23.7201994 70.1227613,23.0500647 70.0660497,22.368788 L70.0660497,21.3362069 C69.2613913,22.3207891 68.0375982,22.8655908 66.7674949,22.80464 C63.6692337,22.7069302 61.2081963,20.1670556 61.2081963,17.0672541 C61.2081963,13.9674525 63.6692337,11.4275779 66.7674949,11.3298682 C68.0375982,11.2689173 69.2613913,11.813719 70.0660497,12.7983012 L70.0660497,11.6459178 L73.3646045,11.6481998 Z M70.0671907,17.0689655 C70.1137836,15.9516855 69.4763356,14.9183281 68.4569457,14.4586217 C67.4375559,13.9989154 66.2410609,14.2052337 65.4345033,14.9797984 C64.6279457,15.7543631 64.3733956,16.9415327 64.7914893,17.9786843 C65.209583,19.0158358 66.2163085,19.6945635 67.3345588,19.6932049 C68.0545458,19.7434546 68.7622145,19.4869435 69.2827805,18.9870262 C69.8033465,18.487109 70.0882743,17.7903958 70.0671907,17.0689655 L70.0671907,17.0689655 Z" id="Shape"></path>
                <path d="M75.2837221,17.2960193 C75.2740223,14.8724729 76.7264662,12.6821661 78.9627531,11.7479862 C81.1990399,10.8138064 83.7779415,11.3200709 85.4950942,13.0303509 C87.2122468,14.740631 87.7288494,17.3174816 86.8036452,19.5574968 C85.878441,21.7975121 83.6939765,23.2587281 81.2704108,23.2587475 C79.6813196,23.2768638 78.1516866,22.6552475 77.0257054,21.5337728 C75.8997243,20.4122982 75.2719786,18.8851703 75.2837221,17.2960193 Z M83.8684077,17.2960193 C83.8289668,15.8704309 82.6481817,14.7428828 81.2222907,14.7692054 C79.7963998,14.7955281 78.6580352,15.9658889 78.6712374,17.3919616 C78.6844395,18.8180344 79.8442769,19.9671191 81.2704108,19.9670385 C81.9779297,19.9859317 82.6611092,19.7080741 83.1545957,19.2007171 C83.6480822,18.6933601 83.9069006,18.0027429 83.8684077,17.2960193 L83.8684077,17.2960193 Z" id="Shape"></path>
                <path d="M88.8373479,8.62119675 C88.8373479,7.79883805 89.3327248,7.05745407 90.0924852,6.74275102 C90.8522456,6.42804797 91.7267676,6.60200121 92.308263,7.18349663 C92.8897584,7.76499205 93.0637117,8.63951408 92.7490086,9.39927445 C92.4343056,10.1590348 91.6929216,10.6544118 90.8705629,10.6544118 C89.752291,10.6432839 88.8484758,9.73946864 88.8373479,8.62119675 Z M89.17964,11.6481998 L92.5694726,11.6481998 L92.5694726,22.9438387 L89.1750761,22.9438387 L89.17964,11.6481998 Z" id="Shape"></path>
                <path d="M107.201318,17.2960193 C107.280417,18.803788 106.755079,20.2808666 105.741668,21.4000727 C104.728258,22.5192788 103.310426,23.1882294 101.802231,23.2587475 C100.530546,23.3281343 99.2950585,22.8220411 98.4375,21.8804513 L98.4375,27.4609533 L95.0488083,27.4609533 L95.0488083,11.6481998 L98.4375,11.6481998 L98.4375,12.7093053 C99.2954632,11.7684102 100.530785,11.2628037 101.802231,11.3321501 C103.310742,11.402361 104.728938,12.0713809 105.742444,13.1909074 C106.755951,14.3104339 107.281041,15.787981 107.201318,17.2960193 L107.201318,17.2960193 Z M103.812627,17.2960193 C103.775667,15.8205845 102.556047,14.6508832 101.080356,14.6755792 C99.6046647,14.7002752 98.4248672,15.9101313 98.4372974,17.3859766 C98.4497276,18.8618219 99.6497362,20.0516342 101.125634,20.0514706 C101.859921,20.0841482 102.573255,19.801917 103.08641,19.2756881 C103.599564,18.7494592 103.863764,18.0292517 103.812627,17.2960193 L103.812627,17.2960193 Z" id="Shape"></path>
                <path d="M117.658342,19.5540061 C117.658342,22.152003 115.400355,23.2587475 112.960953,23.2587475 C110.944297,23.4414184 109.019979,22.376421 108.103829,20.5706136 L111.039554,18.8990872 C111.284265,19.739765 112.083119,20.2951586 112.956389,20.2317444 C113.768763,20.2317444 114.17609,19.9830122 114.17609,19.5323276 C114.17609,18.2886663 108.618408,18.9447262 108.618408,15.0368915 C108.618408,12.5735294 110.697262,11.3321501 113.046526,11.3321501 C114.845189,11.2752308 116.532473,12.2010513 117.450685,13.7487323 L114.559457,15.3073022 C114.300272,14.702446 113.704571,14.3111522 113.046526,14.3135142 C112.458925,14.3135142 112.097236,14.5417089 112.097236,14.9456136 C112.1018,16.2337728 117.658342,15.3746197 117.658342,19.5540061 Z" id="Path"></path>
                <path d="M130.036765,11.6481998 L130.036765,22.9438387 L126.648073,22.9438387 L126.648073,21.8815923 C125.855178,22.8324053 124.654219,23.3450408 123.419118,23.2598884 C121.13717,23.2598884 119.197515,21.634001 119.197515,18.5818966 L119.197515,11.6481998 L122.586207,11.6481998 L122.586207,18.085573 C122.528836,18.6300863 122.714021,19.1722532 123.092514,19.5678908 C123.471007,19.9635283 124.004444,20.1725341 124.550963,20.1393256 C125.793484,20.1393256 126.651496,19.4170892 126.651496,17.8128803 L126.651496,11.6516227 L130.036765,11.6481998 Z" id="Path"></path>
                <path d="M149.467546,16.00786 L149.467546,22.9426978 L146.078854,22.9426978 L146.078854,16.3010903 C146.078854,15.1715264 145.536891,14.4492901 144.452967,14.4492901 C143.323403,14.4492901 142.690162,15.2399848 142.690162,16.572642 L142.690162,22.9426978 L139.302612,22.9426978 L139.302612,16.3010903 C139.302612,15.1715264 138.760649,14.4492901 137.675583,14.4492901 C136.546019,14.4492901 135.91392,15.2399848 135.91392,16.572642 L135.91392,22.9426978 L132.525228,22.9426978 L132.525228,11.6470588 L135.91392,11.6470588 L135.91392,12.6853448 C136.627651,11.7493932 137.767454,11.239425 138.940923,11.3310091 C140.120435,11.2733168 141.243651,11.83904 141.899468,12.8211207 C142.662718,11.794449 143.899762,11.2317252 145.175203,11.3310091 C147.768636,11.3321501 149.467546,13.1839503 149.467546,16.00786 Z" id="Path"></path>
            </g>
        </g>
    </g>
</svg>